<?xml version="1.0" encoding="UTF-8" standalone="no" ?>
<!DOCTYPE svg PUBLIC "-//W3C//DTD SVG 1.1//EN" "http://www.w3.org/Graphics/SVG/1.1/DTD/svg11.dtd">
<svg xmlns="http://www.w3.org/2000/svg" xmlns:xlink="http://www.w3.org/1999/xlink" version="1.1" width="46" height="278" viewBox="0 0 46 278" xml:space="preserve">
<desc>Created with Fabric.js 3.6.3</desc>
<defs>
</defs>
<g transform="matrix(0.31 0 0 2.83 23.52 121.98)"  >
<polygon style="stroke: rgb(0,0,0); stroke-width: 3; stroke-dasharray: none; stroke-linecap: butt; stroke-dashoffset: 0; stroke-linejoin: miter; stroke-miterlimit: 4; fill: rgb(255,255,255); fill-rule: nonzero; opacity: 1;" vector-effect="non-scaling-stroke"  points="0,-42.5 50,42.5 -50,42.5 " />
</g>
<g transform="matrix(0.42 0 0 0.42 23.41 255.55)"  >
<path style="stroke: rgb(0,0,0); stroke-width: 3; stroke-dasharray: none; stroke-linecap: butt; stroke-dashoffset: 0; stroke-linejoin: miter; stroke-miterlimit: 4; fill: rgb(255,255,255); fill-rule: nonzero; opacity: 1;" vector-effect="non-scaling-stroke"  transform=" translate(-51.83, -51.83)" d="m 0 51.82677 l 0 0 c 0 -28.623135 23.203636 -51.82677 51.82677 -51.82677 l 0 0 c 13.745312 0 26.927654 5.4603047 36.64706 15.17971 c 9.719406 9.719404 15.17971 22.901749 15.17971 36.64706 l 0 0 c 0 28.623135 -23.203636 51.82677 -51.82677 51.82677 l 0 0 c -28.623135 0 -51.82677 -23.203636 -51.82677 -51.82677 z m 25.913385 0 l 0 0 c 0 14.311565 11.60182 25.913387 25.913385 25.913387 c 14.311565 0 25.913387 -11.601822 25.913387 -25.913387 c 0 -14.311565 -11.601822 -25.913385 -25.913387 -25.913385 l 0 0 c -14.311565 0 -25.913385 11.60182 -25.913385 25.913385 z" stroke-linecap="round" />
</g>
</svg>